<svg width="1200" height="800" viewBox="0 0 1200 800" fill="none" xmlns="http://www.w3.org/2000/svg">
  <rect width="1200" height="800" rx="48" fill="#06141F"/>
  <rect x="150" y="150" width="260" height="160" rx="30" fill="#FFFFFF" fill-opacity=".1" stroke="#FFFFFF" stroke-opacity=".18"/>
  <rect x="790" y="150" width="260" height="160" rx="30" fill="#FFFFFF" fill-opacity=".1" stroke="#FFFFFF" stroke-opacity=".18"/>
  <rect x="470" y="490" width="260" height="160" rx="30" fill="#FFFFFF" fill-opacity=".1" stroke="#FFFFFF" stroke-opacity=".18"/>
  <circle cx="600" cy="360" r="92" fill="#0071E3"/>
  <path d="M410 230C490 230 510 300 540 330" stroke="#34C759" stroke-width="12" stroke-linecap="round"/>
  <path d="M790 230C710 230 690 300 660 330" stroke="#34C759" stroke-width="12" stroke-linecap="round"/>
  <path d="M600 452V490" stroke="#34C759" stroke-width="12" stroke-linecap="round"/>
  <rect x="205" y="205" width="150" height="24" rx="12" fill="#FFFFFF"/>
  <rect x="845" y="205" width="150" height="24" rx="12" fill="#FFFFFF"/>
  <rect x="525" y="545" width="150" height="24" rx="12" fill="#FFFFFF"/>
  <rect x="552" y="348" width="96" height="24" rx="12" fill="white"/>
</svg>
