<svg width="1200" height="800" viewBox="0 0 1200 800" fill="none" xmlns="http://www.w3.org/2000/svg">
  <rect width="1200" height="800" rx="48" fill="#EEF7FF"/>
  <rect x="130" y="100" width="420" height="600" rx="36" fill="white" stroke="#D2D2D7" stroke-width="2"/>
  <rect x="650" y="150" width="420" height="500" rx="36" fill="white" stroke="#D2D2D7" stroke-width="2"/>
  <rect x="180" y="160" width="210" height="34" rx="17" fill="#0071E3" fill-opacity=".14"/>
  <rect x="180" y="240" width="300" height="46" rx="23" fill="#1D1D1F"/>
  <rect x="180" y="330" width="300" height="48" rx="16" fill="#F5F5F7"/>
  <rect x="180" y="400" width="300" height="48" rx="16" fill="#F5F5F7"/>
  <rect x="180" y="470" width="300" height="92" rx="16" fill="#F5F5F7"/>
  <rect x="180" y="600" width="160" height="52" rx="26" fill="#0071E3"/>
  <rect x="700" y="210" width="220" height="34" rx="17" fill="#1D1D1F"/>
  <rect x="700" y="300" width="320" height="74" rx="20" fill="#F5F5F7"/>
  <rect x="700" y="400" width="320" height="74" rx="20" fill="#F5F5F7"/>
  <rect x="700" y="500" width="320" height="74" rx="20" fill="#F5F5F7"/>
  <circle cx="635" cy="400" r="34" fill="#34C759"/>
  <path d="M622 400l9 9 18-22" stroke="white" stroke-width="8" stroke-linecap="round" stroke-linejoin="round"/>
</svg>
