<svg width="1200" height="800" viewBox="0 0 1200 800" fill="none" xmlns="http://www.w3.org/2000/svg">
  <rect width="1200" height="800" rx="48" fill="#F8FAFC"/>
  <circle cx="990" cy="140" r="180" fill="#0284C7" fill-opacity=".12"/>
  <circle cx="200" cy="670" r="220" fill="#F97316" fill-opacity=".1"/>
  <rect x="120" y="120" width="960" height="560" rx="40" fill="white" stroke="#E2E8F0" stroke-width="2"/>
  <rect x="180" y="180" width="230" height="38" rx="19" fill="#E0F2FE"/>
  <rect x="180" y="262" width="480" height="56" rx="28" fill="#0F172A"/>
  <rect x="180" y="338" width="360" height="56" rx="28" fill="#0284C7"/>
  <rect x="180" y="430" width="430" height="18" rx="9" fill="#CBD5E1"/>
  <rect x="180" y="464" width="360" height="18" rx="9" fill="#E2E8F0"/>
  <rect x="180" y="540" width="190" height="54" rx="27" fill="#F97316"/>
  <rect x="390" y="540" width="190" height="54" rx="27" fill="white" stroke="#CBD5E1" stroke-width="2"/>
  <rect x="700" y="200" width="300" height="400" rx="30" fill="white" stroke="#0284C7" stroke-width="3"/>
  <rect x="740" y="244" width="120" height="26" rx="13" fill="#0284C7"/>
  <rect x="740" y="300" width="180" height="40" rx="12" fill="#0F172A"/>
  <rect x="740" y="368" width="200" height="14" rx="7" fill="#CBD5E1"/>
  <rect x="740" y="398" width="170" height="14" rx="7" fill="#E2E8F0"/>
  <rect x="740" y="428" width="190" height="14" rx="7" fill="#E2E8F0"/>
  <rect x="740" y="500" width="220" height="52" rx="26" fill="#F97316"/>
</svg>
