<svg width="1200" height="800" viewBox="0 0 1200 800" fill="none" xmlns="http://www.w3.org/2000/svg">
  <rect width="1200" height="800" rx="48" fill="#F5F5F7"/>
  <rect x="120" y="110" width="960" height="580" rx="36" fill="white" stroke="#D2D2D7" stroke-width="2"/>
  <rect x="170" y="160" width="160" height="34" rx="17" fill="#AF52DE" fill-opacity=".14"/>
  <path d="M230 560V300" stroke="#D2D2D7" stroke-width="4" stroke-linecap="round"/>
  <circle cx="230" cy="310" r="14" fill="white" stroke="#AF52DE" stroke-width="4"/>
  <circle cx="230" cy="430" r="14" fill="white" stroke="#AF52DE" stroke-width="4"/>
  <circle cx="230" cy="550" r="18" fill="#AF52DE"/>
  <rect x="280" y="270" width="380" height="80" rx="20" fill="#F5F5F7"/>
  <rect x="310" y="292" width="150" height="16" rx="8" fill="#1D1D1F"/>
  <rect x="310" y="318" width="240" height="12" rx="6" fill="#A1A1A6"/>
  <rect x="280" y="390" width="440" height="80" rx="20" fill="#F5F5F7"/>
  <rect x="310" y="412" width="180" height="16" rx="8" fill="#1D1D1F"/>
  <rect x="310" y="438" width="280" height="12" rx="6" fill="#A1A1A6"/>
  <rect x="280" y="510" width="500" height="80" rx="20" fill="#AF52DE" fill-opacity=".1"/>
  <rect x="310" y="532" width="200" height="16" rx="8" fill="#AF52DE"/>
  <rect x="310" y="558" width="300" height="12" rx="6" fill="#A1A1A6"/>
  <rect x="800" y="270" width="230" height="320" rx="28" fill="#101828"/>
  <circle cx="915" cy="360" r="46" fill="#AF52DE" fill-opacity=".3"/>
  <circle cx="915" cy="360" r="26" fill="#AF52DE"/>
  <rect x="850" y="440" width="130" height="14" rx="7" fill="white" fill-opacity=".6"/>
  <rect x="850" y="470" width="100" height="12" rx="6" fill="white" fill-opacity=".3"/>
  <rect x="850" y="520" width="130" height="40" rx="20" fill="white" fill-opacity=".12"/>
</svg>
