<svg width="1200" height="800" viewBox="0 0 1200 800" fill="none" xmlns="http://www.w3.org/2000/svg">
  <rect width="1200" height="800" rx="48" fill="#F5F5F7"/>
  <rect x="120" y="110" width="960" height="580" rx="36" fill="white" stroke="#D2D2D7" stroke-width="2"/>
  <rect x="170" y="160" width="180" height="34" rx="17" fill="#FF3B30" fill-opacity=".12"/>
  <rect x="170" y="240" width="420" height="180" rx="26" fill="#F5F5F7"/>
  <rect x="210" y="280" width="100" height="100" rx="20" fill="#1D1D1F"/>
  <rect x="335" y="280" width="45" height="100" rx="20" fill="#D2D2D7"/>
  <rect x="400" y="300" width="150" height="18" rx="9" fill="#A1A1A6"/>
  <rect x="400" y="334" width="120" height="18" rx="9" fill="#D2D2D7"/>
  <rect x="170" y="460" width="200" height="64" rx="32" fill="#1D1D1F"/>
  <rect x="200" y="482" width="140" height="20" rx="10" fill="white"/>
  <rect x="390" y="460" width="200" height="64" rx="32" fill="white" stroke="#D2D2D7" stroke-width="2"/>
  <rect x="420" y="482" width="140" height="20" rx="10" fill="#D2D2D7"/>
  <rect x="170" y="560" width="420" height="70" rx="22" fill="#0071E3"/>
  <rect x="200" y="586" width="180" height="18" rx="9" fill="white" fill-opacity=".9"/>
  <rect x="660" y="240" width="370" height="390" rx="30" fill="#101828"/>
  <circle cx="845" cy="360" r="60" fill="#FF3B30" fill-opacity=".22"/>
  <circle cx="845" cy="335" r="18" fill="#FF3B30"/>
  <path d="M845 360v52m0-42l-42-12m42 12l42-12m-42 52l-30 44m30-44l30 44" stroke="#FF3B30" stroke-width="10" stroke-linecap="round"/>
  <rect x="720" y="500" width="250" height="16" rx="8" fill="white" fill-opacity=".55"/>
  <rect x="720" y="532" width="190" height="14" rx="7" fill="white" fill-opacity=".3"/>
  <rect x="720" y="572" width="150" height="40" rx="20" fill="white" fill-opacity=".12"/>
</svg>
