<svg width="1200" height="800" viewBox="0 0 1200 800" fill="none" xmlns="http://www.w3.org/2000/svg">
  <rect width="1200" height="800" rx="48" fill="#F5F5F7"/>
  <rect x="100" y="100" width="1000" height="600" rx="36" fill="white" stroke="#D2D2D7" stroke-width="2"/>
  <rect x="100" y="100" width="1000" height="90" rx="36" fill="#1D1D1F"/>
  <rect x="100" y="154" width="1000" height="36" fill="#1D1D1F"/>
  <rect x="150" y="132" width="130" height="26" rx="13" fill="white"/>
  <rect x="880" y="132" width="170" height="26" rx="13" fill="white" fill-opacity=".25"/>
  <rect x="150" y="230" width="200" height="100" rx="22" fill="#F5F5F7"/>
  <rect x="180" y="256" width="80" height="12" rx="6" fill="#A1A1A6"/>
  <rect x="180" y="284" width="100" height="22" rx="11" fill="#1D1D1F"/>
  <rect x="380" y="230" width="200" height="100" rx="22" fill="#F5F5F7"/>
  <rect x="410" y="256" width="80" height="12" rx="6" fill="#A1A1A6"/>
  <rect x="410" y="284" width="100" height="22" rx="11" fill="#FF9F0A"/>
  <rect x="610" y="230" width="200" height="100" rx="22" fill="#F5F5F7"/>
  <rect x="640" y="256" width="80" height="12" rx="6" fill="#A1A1A6"/>
  <rect x="640" y="284" width="100" height="22" rx="11" fill="#34C759"/>
  <rect x="840" y="230" width="210" height="100" rx="22" fill="#0071E3" fill-opacity=".1"/>
  <rect x="870" y="256" width="80" height="12" rx="6" fill="#0071E3"/>
  <rect x="870" y="284" width="120" height="22" rx="11" fill="#0071E3"/>
  <rect x="150" y="370" width="900" height="60" rx="16" fill="#F5F5F7"/>
  <rect x="180" y="392" width="240" height="16" rx="8" fill="#A1A1A6"/>
  <rect x="880" y="386" width="140" height="28" rx="14" fill="#34C759" fill-opacity=".18"/>
  <rect x="150" y="450" width="900" height="60" rx="16" fill="#F5F5F7"/>
  <rect x="180" y="472" width="200" height="16" rx="8" fill="#A1A1A6"/>
  <rect x="880" y="466" width="140" height="28" rx="14" fill="#FF9F0A" fill-opacity=".22"/>
  <rect x="150" y="530" width="900" height="60" rx="16" fill="#F5F5F7"/>
  <rect x="180" y="552" width="260" height="16" rx="8" fill="#A1A1A6"/>
  <rect x="880" y="546" width="140" height="28" rx="14" fill="#0071E3" fill-opacity=".16"/>
  <rect x="150" y="620" width="220" height="50" rx="25" fill="#0071E3"/>
</svg>
