<svg width="1200" height="800" viewBox="0 0 1200 800" fill="none" xmlns="http://www.w3.org/2000/svg">
  <rect width="1200" height="800" rx="48" fill="#F5F5F7"/>
  <rect x="120" y="120" width="520" height="560" rx="36" fill="white" stroke="#D2D2D7" stroke-width="2"/>
  <rect x="170" y="170" width="140" height="34" rx="17" fill="#34C759" fill-opacity=".16"/>
  <rect x="170" y="250" width="44" height="44" rx="14" fill="#34C759"/>
  <path d="M182 272l10 10 18-20" stroke="white" stroke-width="6" stroke-linecap="round" stroke-linejoin="round"/>
  <rect x="238" y="258" width="260" height="18" rx="9" fill="#1D1D1F"/>
  <rect x="238" y="284" width="180" height="12" rx="6" fill="#D2D2D7"/>
  <rect x="170" y="350" width="44" height="44" rx="14" fill="#34C759"/>
  <path d="M182 372l10 10 18-20" stroke="white" stroke-width="6" stroke-linecap="round" stroke-linejoin="round"/>
  <rect x="238" y="358" width="220" height="18" rx="9" fill="#1D1D1F"/>
  <rect x="238" y="384" width="200" height="12" rx="6" fill="#D2D2D7"/>
  <rect x="170" y="450" width="44" height="44" rx="14" fill="white" stroke="#D2D2D7" stroke-width="2"/>
  <rect x="238" y="458" width="240" height="18" rx="9" fill="#A1A1A6"/>
  <rect x="238" y="484" width="160" height="12" rx="6" fill="#E8E8ED"/>
  <rect x="170" y="570" width="180" height="52" rx="26" fill="#34C759"/>
  <rect x="700" y="120" width="380" height="560" rx="36" fill="#0071E3" fill-opacity=".08"/>
  <rect x="750" y="180" width="280" height="180" rx="24" fill="white" stroke="#D2D2D7" stroke-width="2"/>
  <rect x="780" y="210" width="150" height="22" rx="11" fill="#0071E3" fill-opacity=".2"/>
  <rect x="780" y="256" width="220" height="12" rx="6" fill="#D2D2D7"/>
  <rect x="780" y="282" width="180" height="12" rx="6" fill="#E8E8ED"/>
  <rect x="780" y="316" width="110" height="30" rx="15" fill="#0071E3"/>
  <rect x="750" y="400" width="280" height="180" rx="24" fill="white" stroke="#D2D2D7" stroke-width="2"/>
  <circle cx="830" cy="470" r="34" fill="#0071E3" fill-opacity=".16"/>
  <rect x="890" y="440" width="120" height="14" rx="7" fill="#A1A1A6"/>
  <rect x="890" y="466" width="100" height="14" rx="7" fill="#D2D2D7"/>
  <rect x="780" y="520" width="220" height="12" rx="6" fill="#E8E8ED"/>
</svg>
