<svg width="1200" height="800" viewBox="0 0 1200 800" fill="none" xmlns="http://www.w3.org/2000/svg">
  <rect width="1200" height="800" rx="48" fill="#F5F5F7"/>
  <rect x="100" y="120" width="560" height="560" rx="36" fill="white" stroke="#D2D2D7" stroke-width="2"/>
  <rect x="150" y="170" width="150" height="32" rx="16" fill="#0071E3" fill-opacity=".14"/>
  <rect x="150" y="240" width="320" height="38" rx="19" fill="#1D1D1F"/>
  <rect x="150" y="304" width="380" height="16" rx="8" fill="#A1A1A6"/>
  <rect x="150" y="334" width="300" height="16" rx="8" fill="#D2D2D7"/>
  <rect x="150" y="400" width="150" height="90" rx="20" fill="#F5F5F7"/>
  <rect x="320" y="400" width="150" height="90" rx="20" fill="#F5F5F7"/>
  <rect x="490" y="400" width="120" height="90" rx="20" fill="#F5F5F7"/>
  <rect x="150" y="520" width="150" height="90" rx="20" fill="#F5F5F7"/>
  <rect x="320" y="520" width="150" height="90" rx="20" fill="#F5F5F7"/>
  <rect x="490" y="520" width="120" height="90" rx="20" fill="#F5F5F7"/>
  <rect x="720" y="120" width="380" height="560" rx="36" fill="#101828"/>
  <circle cx="1030" cy="190" r="120" fill="#FF9F0A" fill-opacity=".2"/>
  <rect x="770" y="180" width="140" height="32" rx="16" fill="#FF9F0A"/>
  <rect x="770" y="256" width="280" height="40" rx="20" fill="white"/>
  <rect x="770" y="322" width="230" height="16" rx="8" fill="white" fill-opacity=".5"/>
  <rect x="770" y="352" width="260" height="16" rx="8" fill="white" fill-opacity=".3"/>
  <rect x="770" y="430" width="280" height="70" rx="20" fill="white" fill-opacity=".1"/>
  <rect x="770" y="560" width="200" height="54" rx="27" fill="#FF9F0A"/>
</svg>
