<svg width="1200" height="800" viewBox="0 0 1200 800" fill="none" xmlns="http://www.w3.org/2000/svg">
  <rect width="1200" height="800" rx="48" fill="#101828"/>
  <circle cx="950" cy="640" r="200" fill="#FF9F0A" fill-opacity=".18"/>
  <circle cx="220" cy="150" r="140" fill="#0071E3" fill-opacity=".24"/>
  <rect x="150" y="150" width="480" height="500" rx="36" fill="white" fill-opacity=".08" stroke="white" stroke-opacity=".16" stroke-width="2"/>
  <rect x="210" y="210" width="150" height="34" rx="17" fill="#FF9F0A"/>
  <rect x="210" y="290" width="360" height="42" rx="21" fill="white"/>
  <rect x="210" y="356" width="300" height="16" rx="8" fill="white" fill-opacity=".5"/>
  <rect x="210" y="386" width="340" height="16" rx="8" fill="white" fill-opacity=".3"/>
  <rect x="210" y="450" width="360" height="52" rx="16" fill="white" fill-opacity=".12"/>
  <rect x="210" y="522" width="360" height="52" rx="16" fill="white" fill-opacity=".12"/>
  <rect x="720" y="110" width="330" height="580" rx="48" fill="#1D1D1F" stroke="white" stroke-opacity=".25" stroke-width="3"/>
  <rect x="850" y="140" width="70" height="10" rx="5" fill="white" fill-opacity=".3"/>
  <rect x="770" y="190" width="230" height="120" rx="20" fill="#FF9F0A" fill-opacity=".9"/>
  <rect x="770" y="340" width="180" height="16" rx="8" fill="white" fill-opacity=".7"/>
  <rect x="770" y="372" width="220" height="14" rx="7" fill="white" fill-opacity=".35"/>
  <rect x="770" y="400" width="160" height="14" rx="7" fill="white" fill-opacity=".25"/>
  <rect x="770" y="470" width="230" height="48" rx="14" fill="white" fill-opacity=".12"/>
  <rect x="770" y="560" width="230" height="58" rx="29" fill="#0071E3"/>
  <rect x="836" y="580" width="98" height="18" rx="9" fill="white" fill-opacity=".9"/>
</svg>
