<svg width="1200" height="800" viewBox="0 0 1200 800" fill="none" xmlns="http://www.w3.org/2000/svg">
  <rect width="1200" height="800" rx="48" fill="#101828"/>
  <circle cx="1000" cy="160" r="150" fill="#34C759" fill-opacity=".18"/>
  <circle cx="180" cy="680" r="180" fill="#0071E3" fill-opacity=".2"/>
  <rect x="120" y="120" width="960" height="560" rx="40" fill="white" fill-opacity=".07" stroke="white" stroke-opacity=".16" stroke-width="2"/>
  <rect x="180" y="180" width="180" height="36" rx="18" fill="#34C759"/>
  <rect x="180" y="270" width="270" height="130" rx="26" fill="white" fill-opacity=".1"/>
  <circle cx="230" cy="322" r="16" fill="#34C759"/>
  <rect x="266" y="306" width="120" height="14" rx="7" fill="white" fill-opacity=".6"/>
  <rect x="266" y="334" width="90" height="12" rx="6" fill="white" fill-opacity=".3"/>
  <rect x="480" y="270" width="270" height="130" rx="26" fill="white" fill-opacity=".1"/>
  <circle cx="530" cy="322" r="16" fill="#34C759"/>
  <rect x="566" y="306" width="120" height="14" rx="7" fill="white" fill-opacity=".6"/>
  <rect x="566" y="334" width="90" height="12" rx="6" fill="white" fill-opacity=".3"/>
  <rect x="780" y="270" width="270" height="130" rx="26" fill="white" fill-opacity=".1"/>
  <circle cx="830" cy="322" r="16" fill="#FF9F0A"/>
  <rect x="866" y="306" width="120" height="14" rx="7" fill="white" fill-opacity=".6"/>
  <rect x="866" y="334" width="90" height="12" rx="6" fill="white" fill-opacity=".3"/>
  <rect x="180" y="440" width="870" height="190" rx="26" fill="white" fill-opacity=".08"/>
  <path d="M230 540h130l40-60 60 110 44-80 40 30h120l40-50 50 50h130" stroke="#34C759" stroke-width="8" stroke-linecap="round" stroke-linejoin="round"/>
</svg>
