<svg width="1200" height="800" viewBox="0 0 1200 800" fill="none" xmlns="http://www.w3.org/2000/svg">
  <rect width="1200" height="800" rx="48" fill="#F5F5F7"/>
  <rect x="120" y="110" width="960" height="580" rx="36" fill="white" stroke="#D2D2D7" stroke-width="2"/>
  <rect x="170" y="160" width="130" height="34" rx="17" fill="#0071E3" fill-opacity=".14"/>
  <rect x="170" y="240" width="200" height="110" rx="24" fill="#F5F5F7"/>
  <rect x="200" y="270" width="90" height="14" rx="7" fill="#A1A1A6"/>
  <rect x="200" y="300" width="120" height="24" rx="12" fill="#1D1D1F"/>
  <rect x="400" y="240" width="200" height="110" rx="24" fill="#F5F5F7"/>
  <rect x="430" y="270" width="90" height="14" rx="7" fill="#A1A1A6"/>
  <rect x="430" y="300" width="120" height="24" rx="12" fill="#0071E3"/>
  <rect x="630" y="240" width="200" height="110" rx="24" fill="#F5F5F7"/>
  <rect x="660" y="270" width="90" height="14" rx="7" fill="#A1A1A6"/>
  <rect x="660" y="300" width="120" height="24" rx="12" fill="#34C759"/>
  <rect x="170" y="400" width="860" height="230" rx="28" fill="#F5F5F7"/>
  <path d="M230 580l150-70 130 40 170-100 150 30 120-90" stroke="#0071E3" stroke-width="10" stroke-linecap="round" stroke-linejoin="round"/>
  <circle cx="950" cy="390" r="10" fill="#0071E3"/>
  <circle cx="680" cy="450" r="10" fill="#0071E3"/>
  <circle cx="380" cy="510" r="10" fill="#0071E3"/>
</svg>
